<svg width="224" height="225" viewBox="0 0 224 225" fill="none" xmlns="http://www.w3.org/2000/svg">
<g clip-path="url(#clip0_687_219)">
<rect x="-1" width="225" height="81" fill="#DFEDFF"/>
<rect x="-1" y="81" width="225" height="143" fill="#72A895"/>
<path d="M13.2351 188.356H-2.57474H13.2351ZM33.8823 157.604L26.9107 143.414L33.8823 157.604ZM85.8744 152.511L89.3769 167.928L85.8744 152.511ZM130.831 148.113L143.944 139.282L126.282 113.056L113.169 121.887L130.831 148.113ZM-3 200.971C-4.21408 216.734 -4.20747 216.734 -4.2008 216.735C-4.19848 216.735 -4.19172 216.736 -4.18709 216.736C-4.17781 216.737 -4.16825 216.737 -4.15841 216.738C-4.13873 216.74 -4.11793 216.741 -4.09602 216.743C-4.0522 216.746 -4.00392 216.749 -3.95133 216.752C-3.84618 216.759 -3.72349 216.766 -3.58436 216.773C-3.30657 216.786 -2.96058 216.799 -2.55558 216.805C-1.75107 216.818 -0.683558 216.807 0.567264 216.726C2.97369 216.569 6.52512 216.12 10.3404 214.785C14.1529 213.451 18.9673 210.965 22.8606 206.277C26.9607 201.341 29.0449 195.15 29.0449 188.356H-2.57474C-2.57474 188.494 -2.51992 187.347 -1.46389 186.075C-0.614678 185.053 0.140914 184.854 -0.105333 184.941C-0.348822 185.026 -0.856153 185.132 -1.4938 185.173C-1.76502 185.191 -1.96588 185.191 -2.04922 185.19C-2.08815 185.189 -2.09095 185.188 -2.05098 185.19C-2.03077 185.191 -1.99924 185.193 -1.95553 185.196C-1.93365 185.197 -1.90866 185.199 -1.88045 185.201C-1.86634 185.202 -1.85142 185.203 -1.83567 185.204C-1.8278 185.205 -1.81972 185.205 -1.81143 185.206C-1.80729 185.206 -1.8009 185.207 -1.79883 185.207C-1.79241 185.207 -1.78592 185.208 -3 200.971ZM29.0449 188.356C29.0449 182.441 33.8795 175.22 40.8538 171.793L26.9107 143.414C11.8906 150.793 -2.57474 167.575 -2.57474 188.356H29.0449ZM40.8538 171.793C45.7075 169.409 50.5953 169.029 58.5504 169.328C65.9265 169.606 77.2942 170.673 89.3769 167.928L82.372 137.094C75.3908 138.68 69.3162 138.091 59.739 137.731C50.7408 137.392 39.1644 137.393 26.9107 143.414L40.8538 171.793ZM89.3769 167.928C99.3202 165.669 109.988 160.348 117.325 156.285C121.184 154.148 124.512 152.136 126.881 150.656C128.07 149.913 129.028 149.297 129.702 148.858C130.039 148.639 130.306 148.463 130.496 148.337C130.592 148.274 130.668 148.223 130.724 148.186C130.752 148.167 130.775 148.151 130.793 148.139C130.801 148.133 130.809 148.128 130.816 148.124C130.819 148.122 130.822 148.12 130.824 148.118C130.826 148.117 130.827 148.116 130.828 148.116C130.829 148.115 130.831 148.113 122 135C113.169 121.887 113.17 121.886 113.172 121.885C113.172 121.885 113.173 121.884 113.174 121.883C113.175 121.882 113.176 121.882 113.177 121.881C113.178 121.88 113.178 121.88 113.177 121.881C113.175 121.883 113.168 121.887 113.156 121.895C113.132 121.911 113.089 121.94 113.028 121.98C112.905 122.062 112.709 122.191 112.447 122.362C111.921 122.704 111.13 123.213 110.126 123.841C108.109 125.101 105.27 126.816 102.007 128.623C95.1 132.448 87.7048 135.883 82.372 137.094L89.3769 167.928Z" fill="#76552B"/>
<path d="M207.358 93.7658L219.007 93.7658L207.358 93.7658ZM195.93 102.621L198.679 113.942L195.93 102.621ZM162.226 104.775L163.526 116.352L162.226 104.775ZM132.737 100.298L121.7 104.024L129.153 126.099L140.19 122.372L132.737 100.298ZM207.358 81.7125C195.709 81.7125 195.709 81.7125 195.709 81.7126C195.709 81.7126 195.709 81.7127 195.709 81.7129C195.709 81.7131 195.709 81.7135 195.709 81.7139C195.709 81.7149 195.709 81.7163 195.709 81.7182C195.709 81.7219 195.709 81.7276 195.709 81.735C195.709 81.7499 195.709 81.772 195.709 81.8011C195.709 81.8592 195.709 81.945 195.709 82.0557C195.709 82.2772 195.709 82.5983 195.709 82.9969C195.709 83.7942 195.709 84.9016 195.709 86.1421C195.709 88.6231 195.709 91.6364 195.709 93.7658L219.007 93.7658C219.007 91.6364 219.007 88.6231 219.007 86.1421C219.007 84.9016 219.007 83.7942 219.007 82.9969C219.007 82.5983 219.007 82.2772 219.007 82.0557C219.007 81.945 219.007 81.8592 219.007 81.8011C219.007 81.772 219.007 81.7499 219.007 81.735C219.007 81.7276 219.007 81.7219 219.007 81.7182C219.007 81.7163 219.007 81.7149 219.007 81.7139C219.007 81.7134 219.007 81.7131 219.007 81.7129C219.007 81.7127 219.007 81.7126 219.007 81.7126C219.007 81.7125 219.007 81.7125 207.358 81.7125ZM195.709 93.7658C195.709 92.5035 196.09 91.4067 196.554 90.6361C196.97 89.9446 197.336 89.7002 197.241 89.7707C197.153 89.8363 196.802 90.0718 196.066 90.3824C195.346 90.6865 194.388 91.0078 193.18 91.3011L198.679 113.942C202.944 112.906 207.453 111.22 211.171 108.447C214.967 105.615 219.007 100.728 219.007 93.7658L195.709 93.7658ZM193.18 91.3011C189.269 92.2511 184.965 92.47 179.431 92.5188C174.24 92.5646 167.619 92.4472 160.926 93.1989L163.526 116.352C168.677 115.773 173.594 115.87 179.636 115.817C185.336 115.766 191.961 115.573 198.679 113.942L193.18 91.3011ZM160.926 93.1989C155.124 93.8504 147.865 95.7399 142.574 97.257C139.817 98.0477 137.378 98.8013 135.627 99.3575C134.75 99.6362 134.04 99.8669 133.544 100.03C133.296 100.111 133.101 100.176 132.965 100.222C132.897 100.244 132.843 100.262 132.805 100.275C132.786 100.282 132.771 100.287 132.759 100.29C132.754 100.292 132.749 100.294 132.745 100.295C132.743 100.296 132.742 100.296 132.74 100.297C132.74 100.297 132.739 100.297 132.739 100.297C132.738 100.298 132.737 100.298 136.464 111.335C140.19 122.372 140.19 122.372 140.189 122.373C140.189 122.373 140.189 122.373 140.188 122.373C140.188 122.373 140.188 122.373 140.188 122.373C140.188 122.373 140.19 122.372 140.192 122.372C140.196 122.37 140.204 122.368 140.216 122.363C140.24 122.355 140.279 122.342 140.333 122.325C140.439 122.289 140.603 122.235 140.818 122.164C141.249 122.022 141.885 121.816 142.681 121.563C144.278 121.055 146.5 120.369 148.997 119.653C154.214 118.157 159.836 116.766 163.526 116.352L160.926 93.1989Z" fill="#76552B"/>
<path d="M134.483 151.608H138.646L142.455 183.561H131.471L134.483 151.608Z" fill="#76552B" stroke="#76552B" stroke-width="0.332838"/>
<path d="M144.849 150.121L148.158 147.595L170.57 170.686L161.839 177.349L144.849 150.121Z" fill="#76552B" stroke="#76552B" stroke-width="0.332838"/>
<path d="M128.901 150.121L125.592 147.595L103.18 170.686L111.912 177.349L128.901 150.121Z" fill="#76552B" stroke="#76552B" stroke-width="0.332838"/>
<path d="M224 82H-1V24.3475L7.05369 44.4005L16.6175 33.0371V55.0955L26.0134 37.7162L28.698 44.4005L36.0805 29.0265L47.4899 19L52.8591 33.0371L62.4228 48.4111L73.1611 29.0265L85.9128 48.4111L95.9799 33.0371L107.389 39.7215L117.624 24.3475L127.02 48.4111L135.074 39.7215L140.443 55.0955L155.879 29.0265V39.7215L165.946 29.0265L172.826 48.4111L186.248 33.0371L191.617 19L200.342 55.0955L209.067 39.7215L214.436 48.4111L224 29.0265V82Z" fill="#06705B" stroke="#06705B" stroke-width="0.332838"/>
<path d="M117.35 139.554C117.35 139.554 119.617 144.723 122.745 147.071C130.355 152.784 141.262 151.652 150.091 147.071C154.267 144.905 156.405 143.071 158.463 139.554C161.452 134.445 160.686 130.56 158.463 125.229C157.113 121.993 155.46 120.433 153.068 117.57C150.835 114.898 148.767 113.812 146.743 111.045C144.758 108.333 143.95 106.658 142.836 103.67C141.47 100.008 140.976 94.0255 140.976 94.0255C140.976 94.0255 139.093 104.991 132.79 104.663L128.698 103.67L124.419 85.3737C124.419 85.3737 114.423 103.018 113.629 115.017C113.446 117.783 113.462 119.342 113.629 122.108C114.046 129.004 117.35 139.554 117.35 139.554Z" fill="#FFBF4F" stroke="#FFBF4F" stroke-width="0.332838"/>
<path d="M124.888 142.963C124.888 142.963 126.304 145.981 128.256 147.351C133.005 150.686 139.812 150.025 145.323 147.351C147.929 146.087 149.263 145.016 150.547 142.963C152.413 139.981 151.935 137.713 150.547 134.601C149.705 132.712 148.674 131.801 147.18 130.13C145.787 128.57 144.497 127.936 143.233 126.321C141.994 124.738 141.49 123.76 140.795 122.016C139.942 119.878 139.634 116.386 139.634 116.386C139.634 116.386 138.459 122.787 134.525 122.595L131.971 122.016L129.3 111.335C129.3 111.335 123.062 121.635 122.566 128.639C122.452 130.254 122.462 131.164 122.566 132.779C122.827 136.804 124.888 142.963 124.888 142.963Z" fill="#F59E09" stroke="#FFBF4F" stroke-width="0.332838"/>
<path d="M129.869 142.655C129.869 142.655 130.689 144.151 131.82 144.83C134.573 146.483 138.518 146.155 141.711 144.83C143.222 144.203 143.995 143.672 144.739 142.655C145.821 141.177 145.544 140.053 144.739 138.51C144.251 137.574 143.653 137.122 142.788 136.294C141.98 135.521 141.233 135.207 140.5 134.406C139.782 133.621 139.49 133.137 139.087 132.272C138.593 131.213 138.414 129.482 138.414 129.482C138.414 129.482 137.733 132.654 135.454 132.559L133.973 132.272L132.426 126.978C132.426 126.978 128.81 132.084 128.523 135.555C128.457 136.356 128.462 136.807 128.523 137.607C128.674 139.602 129.869 142.655 129.869 142.655Z" fill="#DD8E04" stroke="#DD8E04" stroke-width="0.332838"/>
</g>
<defs>
<clipPath id="clip0_687_219">
<rect width="224" height="224" fill="white" transform="translate(0 0.5)"/>
</clipPath>
</defs>
</svg>
