<svg width="225" height="225" viewBox="0 0 225 225" fill="none" xmlns="http://www.w3.org/2000/svg">
<rect y="192" width="224" height="32" fill="#887154"/>
<path d="M0.329346 122.04H224V192.197H0.329346V122.04Z" fill="#6786AC"/>
<rect x="133.398" y="152.672" width="64.5579" height="39.5252" fill="#76552B"/>
<path d="M165.841 127.969L197.932 152.672H133.751L165.841 127.969Z" fill="#76552B"/>
<rect width="224" height="123" fill="#DFEDFF"/>
<path d="M75.8296 78.7271C82.1154 69.0235 88.8689 64.6003 100.109 61.5995C108.511 59.3564 114.013 59.2729 122.393 61.5995C130.126 63.7467 132.511 69.4702 140.186 71.8102C150.241 74.8757 157.476 75.9598 167.126 71.8102C175.053 68.402 176.095 61.523 183.424 56.9883C188.055 54.1222 190.783 52.4441 196.062 51.0595C203.47 49.1166 208.666 48.014 215.685 51.0595C219.35 52.6496 224 56.9883 224 56.9883V121.546H75.8296C75.8296 121.546 66.7123 92.8018 75.8296 78.7271Z" fill="#ABCABF"/>
<path d="M224 121.546V56.9883C224 56.9883 219.35 52.6496 215.685 51.0595C208.666 48.014 203.47 49.1166 196.062 51.0595C190.783 52.4441 188.055 54.1222 183.424 56.9883C176.095 61.523 175.053 68.402 167.126 71.8102C157.476 75.9598 150.241 74.8757 140.186 71.8102C132.511 69.4702 130.126 63.7467 122.393 61.5995C114.013 59.2729 108.511 59.3564 100.109 61.5995C88.8689 64.6003 82.1154 69.0235 75.8296 78.7271C66.7123 92.8017 75.8296 121.546 75.8296 121.546M224 121.546C224 121.546 133.694 121.546 75.8296 121.546M224 121.546H75.8296" stroke="#ABCABF" stroke-width="0.329377"/>
<path d="M0.330933 43.9778C0.330933 43.9778 31.7775 36.9712 49.721 43.9778C76.4094 54.3991 66.7484 90.3352 92.293 103.266C101.162 107.755 116.572 111.006 116.572 111.006V123.028H0.330933V43.9778Z" fill="#72A895" stroke="#72A895" stroke-width="0.329377"/>
<path d="M155.486 103.502C142.359 108.923 132.612 107.798 119.067 103.502C119.067 103.502 109.583 94.2997 101.772 92.2316C95.3725 90.5371 91.3779 91.3805 84.8097 92.2316C78.6248 93.0329 75.251 94.1996 69.3441 96.1841C64.9016 97.6766 62.8404 99.934 58.2022 100.631C55.1844 101.084 53.3864 101.187 50.3863 100.631C43.2241 99.3027 42.519 91.2219 35.4196 89.5965C31.4333 88.6839 28.8761 88.4809 24.9429 89.5965C20.4926 90.8589 19.5055 94.6833 15.1314 96.1841C9.60857 98.079 0.164673 96.1841 0.164673 96.1841V123.429H224V81.0328C224 81.0328 215.615 79.3897 208.867 81.0328C198.931 83.4521 200.045 93.8922 192.404 100.631C177.042 114.178 174.471 95.6616 155.486 103.502Z" fill="#06705B" stroke="#06705B" stroke-width="0.329377"/>
<circle cx="87.6142" cy="30.4732" r="16.4688" fill="#FFBF4F"/>
</svg>
